<svg width="176" height="56" viewBox="0 0 176 56" fill="none" xmlns="http://www.w3.org/2000/svg">
<path d="M121.58 55V0.399996H124.388V55H121.58ZM141.537 55V0.399996H170.787V2.974H144.345V25.438H162.207V28.012H144.345V55H141.537Z" fill="#C3C70D"/>
<path d="M0 1H109V56H0V1Z" fill="#C3C70D"/>
<path d="M44.032 51V30.968C44.032 24.696 41.664 21.56 36.928 21.56C34.5813 21.56 32.7253 22.4773 31.36 24.312C30.0373 26.104 29.376 28.3227 29.376 30.968V51H24.896V30.968C24.896 24.696 22.528 21.56 17.792 21.56C15.36 21.56 13.4827 22.392 12.16 24.056C10.88 25.6773 10.24 27.8107 10.24 30.456V51H5.76V18.296H10.24V21.496C12.5013 18.8507 15.4667 17.528 19.136 17.528C20.8853 17.528 22.5707 17.976 24.192 18.872C25.8133 19.768 27.072 20.984 27.968 22.52C28.9067 21.0693 30.1867 19.8747 31.808 18.936C33.472 17.9973 35.3067 17.528 37.312 17.528C40.5547 17.528 43.2213 18.5947 45.312 20.728C47.4453 22.8613 48.512 25.6987 48.512 29.24V51H44.032ZM64.1135 10.744C63.5588 11.2987 62.8548 11.576 62.0015 11.576C61.1482 11.576 60.4442 11.2987 59.8895 10.744C59.3348 10.1893 59.0575 9.48533 59.0575 8.632C59.0575 7.77866 59.3348 7.05333 59.8895 6.456C60.4868 5.85866 61.1908 5.56 62.0015 5.56C62.8548 5.56 63.5588 5.85866 64.1135 6.456C64.6682 7.05333 64.9455 7.77866 64.9455 8.632C64.9455 9.48533 64.6682 10.1893 64.1135 10.744ZM59.7615 51V18.296H64.2415V51H59.7615ZM95.9825 51V31.032C95.9825 27.7467 95.2998 25.3573 93.9345 23.864C92.5692 22.328 90.7132 21.56 88.3665 21.56C82.9905 21.56 80.3025 24.6747 80.3025 30.904V51H75.8225V18.296H80.3025V21.88C82.3078 18.9787 85.1238 17.528 88.7505 17.528C92.7612 17.528 95.7052 18.744 97.5825 21.176C99.5025 23.608 100.463 27.512 100.463 32.888V51H95.9825Z" fill="#272727"/>
</svg>
